<svg width="105" height="80" viewBox="0 0 105 80" fill="none" xmlns="http://www.w3.org/2000/svg">
    <rect x="1" y="1" width="103" height="78" rx="15" fill="url(#paint0_linear_24_6896)" stroke="#666666" stroke-width="2"/>
    <path fill-rule="evenodd" clip-rule="evenodd" d="M67.258 17.5624C63.6697 10.3958 58.0324 4.76848 54.3241 2.56953C54.0789 2.42771 53.9001 2.19429 53.827 1.92061C53.7539 1.64694 53.7925 1.35544 53.9343 1.11023C54.0761 0.865018 54.3096 0.686192 54.5832 0.613088C54.8569 0.539983 55.1484 0.578589 55.3936 0.720413C60.2513 3.56906 65.8986 10.1059 69.1371 16.5629C69.215 16.6865 69.2649 16.8258 69.2832 16.9708C69.3015 17.1158 69.2878 17.2631 69.243 17.4022C69.1982 17.5414 69.1235 17.669 69.024 17.7761C68.9245 17.8832 68.8027 17.9672 68.6673 18.0222C68.5229 18.1001 68.3616 18.1413 68.1975 18.1421C68.0025 18.1423 67.8113 18.0882 67.6454 17.9858C67.4794 17.8834 67.3453 17.7368 67.258 17.5624ZM34.7734 51.8561C34.8434 61.7913 44.189 73.6357 50.6259 77.4639C50.7501 77.5287 50.8593 77.619 50.9464 77.7288C51.0335 77.8386 51.0965 77.9654 51.1314 78.1012C51.1662 78.2369 51.1722 78.3784 51.1488 78.5166C51.1254 78.6548 51.0733 78.7865 50.9957 78.9032C50.9014 79.0606 50.7682 79.191 50.6089 79.2821C50.4496 79.3731 50.2696 79.4216 50.0861 79.4229C49.899 79.4235 49.7155 79.3716 49.5564 79.273C42.6897 75.2249 33.2941 63.3906 32.6944 52.7956H1.0495C0.787541 52.7701 0.544464 52.648 0.36761 52.453C0.190757 52.2581 0.0927906 52.0043 0.0927906 51.7411C0.0927906 51.4779 0.190757 51.2241 0.36761 51.0292C0.544464 50.8343 0.787541 50.7122 1.0495 50.6866H32.8943C34.8888 43.6962 34.8888 36.2873 32.8943 29.2968H1.0495C0.771155 29.2968 0.504211 29.1862 0.307391 28.9894C0.110572 28.7926 0 28.5257 0 28.2473C0 27.969 0.110572 27.702 0.307391 27.5052C0.504211 27.3084 0.771155 27.1978 1.0495 27.1978H32.6944C33.2941 16.5629 42.7297 4.76849 49.5564 0.720413C49.8016 0.578589 50.0931 0.539983 50.3668 0.613088C50.6405 0.686192 50.8739 0.865018 51.0157 1.11023C51.1575 1.35544 51.1961 1.64694 51.123 1.92061C51.0499 2.19429 50.8711 2.42771 50.6259 2.56953C44.189 6.34773 34.8434 18.2021 34.7734 28.1474C37.0628 35.8845 37.0628 44.119 34.7734 51.8561ZM103.951 50.6866H72.0457C70.0513 43.6962 70.0513 36.2873 72.0457 29.2968H103.951C104.229 29.2968 104.496 29.1862 104.693 28.9894C104.889 28.7926 105 28.5257 105 28.2473C105 27.969 104.889 27.702 104.693 27.5052C104.496 27.3084 104.229 27.1978 103.951 27.1978H71.2361C71.0086 27.2004 70.788 27.2769 70.6078 27.4157C70.4275 27.5545 70.2972 27.7482 70.2365 27.9674C67.9127 35.7608 67.9127 44.0627 70.2365 51.8561C70.1666 61.7913 60.821 73.6357 54.3841 77.4639C54.2566 77.5251 54.1435 77.6127 54.0523 77.7208C53.9611 77.829 53.894 77.9552 53.8552 78.0913C53.8165 78.2273 53.8071 78.3701 53.8276 78.51C53.8481 78.65 53.8981 78.784 53.9743 78.9032C54.0686 79.0606 54.2018 79.191 54.3611 79.2821C54.5204 79.3731 54.7004 79.4216 54.8839 79.4229C55.071 79.4235 55.2545 79.3716 55.4136 79.273C62.2404 75.2749 71.6759 63.3906 72.2756 52.7956H103.951C104.212 52.7701 104.456 52.648 104.632 52.453C104.809 52.2581 104.907 52.0043 104.907 51.7411C104.907 51.4779 104.809 51.2241 104.632 51.0292C104.456 50.8343 104.212 50.7122 103.951 50.6866ZM51.431 6.44456C51.7401 6.23808 52.1034 6.12787 52.475 6.12787C52.9734 6.12787 53.4513 6.32585 53.8037 6.67825C54.1561 7.03065 54.3541 7.5086 54.3541 8.00697C54.3541 8.37863 54.2439 8.74193 54.0374 9.05095C53.831 9.35997 53.5375 9.60081 53.1941 9.74304C52.8507 9.88527 52.4729 9.92248 52.1084 9.84997C51.7439 9.77747 51.4091 9.5985 51.1463 9.3357C50.8835 9.0729 50.7045 8.73808 50.632 8.37357C50.5595 8.00906 50.5967 7.63123 50.7389 7.28787C50.8812 6.94451 51.122 6.65103 51.431 6.44456Z" fill="#666666"/>
    <defs>
        <linearGradient id="paint0_linear_24_6896" x1="-10" y1="-1.61026e-06" x2="113.5" y2="80" gradientUnits="userSpaceOnUse">
            <stop stop-color="#FBC926"/>
            <stop offset="0.212761" stop-color="#FFFBCC"/>
            <stop offset="0.548384" stop-color="#C3922E" stop-opacity="0.8"/>
            <stop offset="0.914316" stop-color="#EED688"/>
            <stop offset="1" stop-color="#FFFBCC"/>
        </linearGradient>
    </defs>
</svg>
