<svg width="24" height="25" viewBox="0 0 24 25" fill="none" xmlns="http://www.w3.org/2000/svg">
    <g clip-path="url(#clip0_1_1617)">
        <path d="M16.3542 0.855087C15.0938 0.942262 13.6207 1.749 12.7623 2.79952C11.9792 3.75253 11.335 5.16801 11.5862 6.54359C12.9632 6.58644 14.3861 5.7605 15.2105 4.69224C15.9818 3.69786 16.5654 2.29125 16.3542 0.855087Z" fill="#A8A8A8"/>
        <path d="M21.3347 8.78647C20.1246 7.26904 18.424 6.38843 16.8179 6.38843C14.6977 6.38843 13.8008 7.40349 12.3277 7.40349C10.8088 7.40349 9.65483 6.39138 7.82121 6.39138C6.02009 6.39138 4.10225 7.49215 2.88624 9.37452C1.17674 12.0252 1.46929 17.0089 4.23966 21.2539C5.23109 22.7728 6.55496 24.4808 8.28663 24.4956C9.8277 24.5104 10.2621 23.5071 12.3498 23.4968C14.4376 23.485 14.8336 24.5089 16.3717 24.4927C18.1048 24.4794 19.5011 22.5866 20.4925 21.0677C21.2032 19.9788 21.4677 19.4306 22.0188 18.2013C18.0103 16.675 17.3676 10.9747 21.3347 8.78647Z" fill="#A8A8A8"/>
    </g>
    <defs>
        <clipPath id="clip0_1_1617">
            <rect width="23.6407" height="23.6407" fill="white" transform="translate(0.101807 0.855118)"/>
        </clipPath>
    </defs>
</svg>
