<svg width="18" height="18" viewBox="0 0 18 18" fill="none" xmlns="http://www.w3.org/2000/svg">
    <path d="M8.99995 2.2C11.2 2.2 11.5 2.2 12.4 2.2C13.2 2.2 13.6 2.4 13.9 2.5C14.3 2.7 14.6 2.8 14.9 3.1C15.2 3.4 15.4 3.7 15.5 4.1C15.6 4.4 15.7 4.8 15.8 5.6C15.8 6.5 15.8 6.7 15.8 9C15.8 11.3 15.8 11.5 15.8 12.4C15.8 13.2 15.6 13.6 15.5 13.9C15.3 14.3 15.2 14.6 14.9 14.9C14.6 15.2 14.3 15.4 13.9 15.5C13.6 15.6 13.2 15.7 12.4 15.8C11.5 15.8 11.3 15.8 8.99995 15.8C6.69995 15.8 6.49995 15.8 5.59995 15.8C4.79995 15.8 4.39995 15.6 4.09995 15.5C3.69995 15.3 3.39995 15.2 3.09995 14.9C2.79995 14.6 2.59995 14.3 2.49995 13.9C2.39995 13.6 2.29995 13.2 2.19995 12.4C2.19995 11.5 2.19995 11.3 2.19995 9C2.19995 6.7 2.19995 6.5 2.19995 5.6C2.19995 4.8 2.39995 4.4 2.49995 4.1C2.69995 3.7 2.79995 3.4 3.09995 3.1C3.39995 2.8 3.69995 2.6 4.09995 2.5C4.39995 2.4 4.79995 2.3 5.59995 2.2C6.49995 2.2 6.79995 2.2 8.99995 2.2ZM8.99995 0.700001C6.69995 0.700001 6.49995 0.700001 5.59995 0.700001C4.69995 0.700001 4.09995 0.900001 3.59995 1.1C3.09995 1.3 2.59995 1.6 2.09995 2.1C1.59995 2.6 1.39995 3 1.09995 3.6C0.899952 4.1 0.799951 4.7 0.699951 5.6C0.699951 6.5 0.699951 6.8 0.699951 9C0.699951 11.3 0.699951 11.5 0.699951 12.4C0.699951 13.3 0.899952 13.9 1.09995 14.4C1.29995 14.9 1.59995 15.4 2.09995 15.9C2.59995 16.4 2.99995 16.6 3.59995 16.9C4.09995 17.1 4.69995 17.2 5.59995 17.3C6.49995 17.3 6.79995 17.3 8.99995 17.3C11.2 17.3 11.5 17.3 12.4 17.3C13.3 17.3 13.9 17.1 14.4 16.9C14.9 16.7 15.4 16.4 15.9 15.9C16.4 15.4 16.6 15 16.9 14.4C17.1 13.9 17.1999 13.3 17.2999 12.4C17.2999 11.5 17.2999 11.2 17.2999 9C17.2999 6.8 17.2999 6.5 17.2999 5.6C17.2999 4.7 17.1 4.1 16.9 3.6C16.7 3.1 16.4 2.6 15.9 2.1C15.4 1.6 15 1.4 14.4 1.1C13.9 0.900001 13.3 0.800001 12.4 0.700001C11.5 0.700001 11.3 0.700001 8.99995 0.700001Z" fill="white"/>
    <path d="M8.99995 4.7C6.59995 4.7 4.69995 6.6 4.69995 9C4.69995 11.4 6.59995 13.3 8.99995 13.3C11.4 13.3 13.3 11.4 13.3 9C13.3 6.6 11.4 4.7 8.99995 4.7ZM8.99995 11.8C7.49995 11.8 6.19995 10.6 6.19995 9C6.19995 7.5 7.39995 6.2 8.99995 6.2C10.5 6.2 11.8 7.4 11.8 9C11.8 10.5 10.5 11.8 8.99995 11.8Z" fill="white"/>
    <path d="M13.4 5.6C13.9522 5.6 14.4 5.15229 14.4 4.6C14.4 4.04772 13.9522 3.6 13.4 3.6C12.8477 3.6 12.4 4.04772 12.4 4.6C12.4 5.15229 12.8477 5.6 13.4 5.6Z" fill="white"/>
</svg>
