<svg width="180" height="112" viewBox="0 0 180 112" fill="none" xmlns="http://www.w3.org/2000/svg">
    <path d="M116.789 11.8963H63.2342V99.3664H116.789V11.8963Z" fill="#FF5F00"/>
    <path d="M68.7503 55.639C68.7437 47.2164 70.653 38.9027 74.3338 31.3269C78.0146 23.7512 83.3704 17.112 89.9959 11.9117C81.7899 5.46267 71.935 1.45238 61.5577 0.339206C51.1803 -0.773969 40.6991 1.05488 31.3119 5.61672C21.9248 10.1786 14.0104 17.2894 8.47335 26.1364C2.93632 34.9835 0 45.2099 0 55.6468C0 66.0837 2.93632 76.31 8.47335 85.1571C14.0104 94.0042 21.9248 101.115 31.3119 105.677C40.6991 110.239 51.1803 112.067 61.5577 110.954C71.935 109.841 81.7899 105.831 89.9959 99.3818C83.3684 94.1799 78.0113 87.5382 74.3304 79.9596C70.6495 72.381 68.7413 64.0642 68.7503 55.639Z" fill="#EB001B"/>
    <path d="M174.685 90.111V88.3186H175.457V87.9478H173.619V88.3186H174.345V90.111H174.685ZM178.254 90.111V87.9478H177.698L177.049 89.4929L176.4 87.9478H175.844V90.111H176.245V88.4732L176.848 89.8792H177.265L177.868 88.4732V90.111H178.254Z" fill="#F79E1B"/>
    <path d="M180 55.639C180 66.0767 177.063 76.3037 171.525 85.1511C165.987 93.9985 158.071 101.109 148.683 105.67C139.294 110.232 128.812 112.059 118.434 110.944C108.056 109.83 98.2013 105.817 89.9959 99.3663C96.6188 94.1615 101.973 87.5204 105.655 79.9442C109.337 72.3681 111.25 64.0547 111.25 55.6313C111.25 47.2079 109.337 38.8945 105.655 31.3184C101.973 23.7422 96.6188 17.1012 89.9959 11.8963C98.2013 5.4452 108.056 1.43297 118.434 0.318192C128.812 -0.796582 139.294 1.03109 148.683 5.59228C158.071 10.1535 165.987 17.2642 171.525 26.1115C177.063 34.9589 180 45.1859 180 55.6236V55.639Z" fill="#F79E1B"/>
</svg>
