<svg width="45" height="56" viewBox="0 0 45 56" fill="none" xmlns="http://www.w3.org/2000/svg">
    <path d="M1.07586 21.1556C0.846191 20.8446 0.680018 20.4915 0.586828 20.1163C0.493637 19.7411 0.475255 19.3513 0.53273 18.969C0.648805 18.197 1.06682 17.5027 1.69481 17.0388C2.3228 16.575 3.10933 16.3796 3.88136 16.4957C4.6534 16.6118 5.34771 17.0298 5.81154 17.6578C6.89931 19.1176 7.74946 20.7402 8.33052 22.4654C8.93461 24.2554 9.24096 26.1324 9.23736 28.0216C9.23938 29.9059 8.93306 31.7779 8.33052 33.5634C7.74946 35.2886 6.89931 36.9112 5.81154 38.371C5.34771 38.999 4.6534 39.417 3.88136 39.5331C3.10933 39.6492 2.3228 39.4538 1.69481 38.99C1.06682 38.5261 0.648805 37.8318 0.53273 37.0598C0.416654 36.2877 0.612023 35.5012 1.07586 34.8732C1.79461 33.9167 2.35809 32.8529 2.74558 31.7209C3.15758 30.5307 3.37153 29.281 3.37893 28.0216C3.38387 26.7694 3.18453 25.5247 2.78877 24.3367C2.39075 23.1919 1.8125 22.118 1.07586 21.1556ZM11.1518 15.6714C13.4429 19.3823 14.6496 23.6604 14.6352 28.0216C14.6548 32.375 13.4583 36.6474 11.1806 40.3574C10.9774 40.6863 10.8409 41.052 10.7791 41.4337C10.7172 41.8153 10.7311 42.2054 10.82 42.5816C10.9089 42.9579 11.071 43.313 11.2971 43.6266C11.5232 43.9402 11.8089 44.2062 12.1378 44.4094C12.4667 44.6126 12.8324 44.749 13.214 44.8109C13.5957 44.8727 13.9858 44.8588 14.362 44.77C14.7383 44.6811 15.0933 44.5189 15.4069 44.2928C15.7205 44.0667 15.9865 43.7811 16.1897 43.4522C19.0438 38.8137 20.5399 33.4677 20.508 28.0216C20.5418 22.5707 19.0457 17.2196 16.1897 12.5766C15.9865 12.2477 15.7205 11.9621 15.4069 11.736C15.0933 11.5099 14.7383 11.3477 14.362 11.2588C13.9858 11.17 13.5957 11.1561 13.214 11.2179C12.8324 11.2798 12.4667 11.4162 12.1378 11.6194C11.8089 11.8226 11.5232 12.0886 11.2971 12.4022C11.071 12.7158 10.9089 13.0709 10.82 13.4472C10.7311 13.8234 10.7172 14.2135 10.7791 14.5951C10.8409 14.9768 10.9774 15.3425 11.1806 15.6714H11.1518ZM21.8754 10.1296C25.056 15.5766 26.7302 21.7716 26.7263 28.0792C26.7283 34.3819 25.0542 40.5718 21.8754 46.0143C21.6798 46.3479 21.5518 46.7168 21.4987 47.1C21.4456 47.4831 21.4685 47.8729 21.5661 48.2471C21.6637 48.6214 21.834 48.9727 22.0674 49.2812C22.3008 49.5896 22.5926 49.849 22.9262 50.0447C23.2599 50.2403 23.6288 50.3683 24.0119 50.4214C24.395 50.4745 24.7848 50.4516 25.159 50.354C25.5333 50.2564 25.8847 50.0861 26.1931 49.8527C26.5015 49.6194 26.7609 49.3275 26.9566 48.9939C30.6727 42.6564 32.6259 35.4402 32.6135 28.0936C32.638 20.72 30.6898 13.474 26.971 7.10686C26.5701 6.43115 25.9173 5.94235 25.156 5.74799C24.3948 5.55363 23.5875 5.66963 22.9118 6.07047C22.2361 6.47132 21.7473 7.12417 21.553 7.88541C21.3586 8.64665 21.4746 9.45392 21.8754 10.1296ZM32.5559 4.5159C36.6469 11.6941 38.7905 19.817 38.7742 28.0792C38.7887 36.3365 36.6451 44.4543 32.5559 51.628C32.3669 51.9636 32.2458 52.333 32.1996 52.7154C32.1533 53.0977 32.1828 53.4854 32.2864 53.8563C32.39 54.2272 32.5657 54.5741 32.8033 54.8771C33.0409 55.1801 33.336 55.4334 33.6715 55.6224C34.007 55.8115 34.3765 55.9325 34.7588 55.9788C35.1411 56.025 35.5288 55.9955 35.8997 55.8919C36.2706 55.7883 36.6175 55.6127 36.9205 55.3751C37.2236 55.1374 37.4768 54.8424 37.6659 54.5069C42.2597 46.4416 44.6709 37.3178 44.6614 28.036C44.6828 18.7299 42.2712 9.57983 37.6659 1.49313C37.2841 0.815507 36.6488 0.317294 35.8997 0.108088C35.1506 -0.101118 34.3491 -0.00417955 33.6715 0.377578C32.9939 0.759335 32.4956 1.39464 32.2864 2.14373C32.0772 2.89282 32.1742 3.69434 32.5559 4.37196" fill="white"/>
</svg>
