<svg width="186" height="60" viewBox="0 0 186 60" fill="none" xmlns="http://www.w3.org/2000/svg">
    <path d="M70.545 1.06152L46.1531 59.1221H30.3457L18.4612 12.7844C18.3493 11.6907 17.9542 10.6451 17.3148 9.75075C16.6754 8.8564 15.8138 8.14422 14.8152 7.68449C10.0941 5.44671 5.11953 3.78853 0 2.74611L0.346148 1.06152H25.8919C27.5649 1.04344 29.1878 1.63184 30.4605 2.71788C31.7332 3.80391 32.5696 5.31411 32.8149 6.96912L39.2301 40.5686L54.7837 1.06152H70.545ZM132.852 40.2917C132.852 24.9688 111.667 24.1381 111.806 17.2151C111.806 15.1382 113.837 12.9229 118.175 12.369C123.256 11.8712 128.378 12.7646 132.99 14.9536L135.621 2.63073C131.098 0.924135 126.309 0.0334246 121.475 0C106.637 0 96.0908 7.89218 96.0908 19.1997C96.0908 27.5534 103.545 32.1918 109.221 34.9841C114.898 37.7763 117.044 39.5994 117.021 42.207C117.021 46.107 112.406 47.8146 108.044 47.8839C102.669 48.0076 97.3516 46.7439 92.6062 44.2147L89.9986 56.9299C95.293 58.9945 100.931 60.0359 106.614 59.9991C122.375 59.9991 132.713 52.2223 132.759 40.1532L132.852 40.2917ZM171.99 59.0991H185.836L173.72 1.06152H160.89C159.541 1.08445 158.229 1.50068 157.114 2.25909C155.999 3.01751 155.13 4.08508 154.613 5.33068L131.975 59.1221H147.69L150.828 50.4454H170.097L171.99 59.0991ZM155.19 38.5379L163.105 16.7536L167.72 38.5379H155.19ZM92.0062 1.06152L79.591 59.1221H64.6144L77.0065 1.06152H92.0062Z" fill="#1A1F71"/>
</svg>
